Coordinates
version=1
nRows=21
nColumns=19
inDegrees=yes

Units are S.I. units (second, meters, Newtons, ...)
If the header above contains a line with 'inDegrees', this indicates whether rotational values are in degrees (yes) or radians (no).

endheader
time	pelvis_obliquity	pelvis_rotation	pelvis_tilt	pelvis_to_ground_tx	pelvis_to_ground_ty	pelvis_to_ground_tz	left_hip_abduction	left_hip_rotation	left_hip_flexion	left_knee_flexion	left_ankle_flexion	left_subtalar_angle	right_hip_abduction	right_hip_rotation	right_hip_flexion	right_knee_flexion	right_ankle_flexion	right_subtalar_angle
      2.84000000	     84.53758838	      5.62663445	     -6.01480046	      0.07333536	     -0.68588316	      0.59237723	      7.03448868	    -13.89858051	     45.49297418	    -35.19151078	    -16.79559658	    -15.91172599	     12.35534088	     22.38855729	      3.19533115	     -8.94077040	     -7.34697715	     -8.88062000
      2.85000000	     84.36708949	      4.81752947	     -6.19405449	      0.08594211	     -0.68563219	      0.58764236	      7.79609409	    -14.62395539	     45.76755930	    -33.13081657	    -16.91009250	    -16.06124981	     12.88234216	     22.14788312	      2.27333478	     -9.70737293	     -7.14097165	     -8.82589958
      2.86000000	     84.22882306	      4.23346927	     -6.15224712	      0.09912926	     -0.68538240	      0.58287877	      8.24480991	    -15.31905091	     45.57694344	    -31.40429588	    -17.29011673	    -16.75858223	     13.37899022	     21.52520811	      1.18532017	    -10.47809700	     -6.73392722	     -8.59810444
      2.87000000	     84.32967272	      3.77712027	     -6.44858984	      0.11279380	     -0.68497575	      0.57843779	      8.33404284	    -15.98064865	     45.42679026	    -29.90327156	    -17.58466530	    -17.77826140	     13.46287342	     21.13242771	      0.45097620	    -11.09077341	     -6.79660285	     -8.08454856
      2.88000000	     84.53128862	      3.58925691	     -6.76501141	      0.12686736	     -0.68455317	      0.57429191	      8.11478535	    -16.66001943	     45.13559002	    -28.82737403	    -17.47349899	    -18.02833232	     13.41650674	     20.67942014	     -0.17100067	    -11.62585887	     -7.19867528	     -7.94318324
      2.89000000	     84.92929759	      3.54606276	     -7.17481806	      0.14126896	     -0.68400352	      0.57063288	      7.48793363	    -17.18483976	     44.74583933	    -28.12057902	    -17.11238702	    -18.55591789	     13.10167602	     20.30393125	     -0.57093515	    -12.14985230	     -8.27365507	     -7.49163225
      2.90000000	     85.50775557	      3.71486392	     -7.64516387	      0.15586743	     -0.68333748	      0.56754821	      6.58231416	    -17.75037721	     44.25211047	    -27.71845706	    -16.59637648	    -18.85946700	     12.55694551	     19.89304134	     -0.71125596	    -12.74563768	     -9.56637164	     -7.13534895
      2.91000000	     86.26032330	      4.06002432	     -8.16902603	      0.17055832	     -0.68252333	      0.56514764	      5.44166338	    -18.29231147	     43.64741476	    -27.51996033	    -15.92261728	    -18.96728258	     11.79928403	     19.48115472	     -0.58017145	    -13.46170641	    -11.11336378	     -6.79185820
      2.92000000	     87.17013497	      4.56889114	     -8.72888254	      0.18524060	     -0.68154386	      0.56352245	      4.14932486	    -18.83801720	     42.90468993	    -27.39055032	    -15.15244249	    -18.84666475	     10.85781310	     19.04415018	     -0.17812249	    -14.34684241	    -12.81862927	     -6.50558857
      2.93000000	     88.20833006	      5.22300161	     -9.31038135	      0.19981010	     -0.68038169	      0.56274501	      2.78283435	    -19.38798595	     42.00017449	    -27.18987833	    -14.36312858	    -18.46972362	      9.76375085	     18.55801142	      0.49603343	    -15.45522948	    -14.52345293	     -6.31811078
      2.94000000	     89.34016299	      6.01058607	     -9.92109785	      0.21417486	     -0.67902395	      0.56287126	      1.42304141	    -19.95501011	     40.93301820	    -26.77908346	    -13.64059602	    -17.86230198	      8.54032565	     17.98074498	      1.45202520	    -16.81157019	    -16.04756082	     -6.26186529
      2.95000000	     90.52418013	      6.90846252	    -10.54246259	      0.22827576	     -0.67747081	      0.56391013	      0.12045835	    -20.52848287	     39.67850857	    -26.05576991	    -13.01352481	    -17.01546887	      7.22620528	     17.27549929	      2.65934587	    -18.42584457	    -17.30162879	     -6.36043831
      2.96000000	     91.71474827	      7.89669851	    -11.16451593	      0.24206019	     -0.67572299	      0.56583777	     -1.07074202	    -21.12951832	     38.22413218	    -24.93987522	    -12.56664141	    -16.07022815	      5.85625461	     16.40481972	      4.09450695	    -20.29126847	    -18.12704355	     -6.65175028
      2.97000000	     92.85742034	      8.94659808	    -11.75348908	      0.25551266	     -0.67379152	      0.56857416	     -2.14391334	    -21.69763576	     36.55338238	    -23.42036227	    -12.27653920	    -14.96701760	      4.48572585	     15.36272681	      5.69813255	    -22.37902544	    -18.57699638	     -7.12263393
      2.98000000	     93.88923112	     10.02922355	    -12.23757510	      0.26862867	     -0.67169990	      0.57199299	     -3.10185281	    -22.17032622	     34.61738119	    -21.52139184	    -12.15639245	    -13.75930413	      3.17726050	     14.12622824	      7.38480092	    -24.65856386	    -18.59232312	     -7.80020964
      2.99000000	     94.78901508	     11.15607860	    -12.70883803	      0.28140903	     -0.66947561	      0.57600610	     -3.82628058	    -22.80205264	     32.51172098	    -19.20405045	    -12.25719692	    -12.89617156	      1.94794595	     12.76484886	      9.20568699	    -27.02659867	    -18.29827614	     -8.56669868
      3.00000000	     95.49536457	     12.27664490	    -13.03796404	      0.29387134	     -0.66716182	      0.58036888	     -4.42428741	    -23.31390470	     30.19328401	    -16.65103973	    -12.59261392	    -12.04090264	      0.85520981	     11.26741299	     11.05538116	    -29.49780645	    -17.65490450	     -9.48654243
      3.01000000	     95.98651878	     13.39905726	    -13.24542043	      0.30602185	     -0.66481592	      0.58492401	     -4.84862407	    -23.80838305	     27.72680570	    -13.92522952	    -13.04360157	    -11.38657053	     -0.07499516	      9.69108426	     12.94319140	    -31.99451133	    -16.85221617	    -10.41195189
      3.02000000	     96.25015239	     14.51996969	    -13.29204175	      0.31784095	     -0.66249331	      0.58940781	     -5.15672979	    -24.14586588	     25.19970070	    -11.27103009	    -13.80838531	    -10.88971052	     -0.83648937	      8.02105835	     14.87211599	    -34.55300409	    -15.67879688	    -11.41097688
      3.03000000	     96.29871429	     15.68890551	    -13.21255658	      0.32936236	     -0.66026700	      0.59372031	     -5.26773698	    -24.61979796	     22.64527500	     -8.67615034	    -14.22521672	    -10.56514215	     -1.41512440	      6.30447672	     16.83881558	    -37.05960540	    -14.93933210	    -12.10742369
      3.04000000	     96.20277394	     16.71273239	    -12.99011530	      0.34055269	     -0.65812249	      0.59765730	     -5.37516298	    -24.77424828	     20.11044773	     -6.28754127	    -15.37290877	    -10.44295711	     -1.92849513	      4.83143515	     18.87930399	    -39.58523381	    -13.28927450	    -12.96600723
